<svg xmlns="http://www.w3.org/2000/svg" viewBox="0 0 1080 1080"><defs><style>.cls-1{fill:#3fbdf1;}</style></defs><g id="Layer_1" data-name="Layer 1"><rect width="1080" height="1080"/></g><g id="Layer_2" data-name="Layer 2"><path class="cls-1" d="M540,746.74C426,746.74,333.26,654,333.26,540S426,333.26,540,333.26,746.74,426,746.74,540,654,746.74,540,746.74Zm0-392.41c-102.38,0-185.67,83.29-185.67,185.67S437.62,725.67,540,725.67,725.66,642.38,725.66,540,642.38,354.33,540,354.33Z"/><path class="cls-1" d="M592.94,597.82,680.33,448.7a165.88,165.88,0,0,1,27,91,163.28,163.28,0,0,1-10.52,58.13Z"/><path class="cls-1" d="M392.13,461.25c25-45.73,70.53-78.61,120.68-86.87L563,461.25Z"/><path class="cls-1" d="M531.34,372.72c2.86-.1,5.74-.11,8.66-.11A166.53,166.53,0,0,1,669.37,433.8l-51.7,88.64Z"/><path class="cls-1" d="M399.63,631.13a167.65,167.65,0,0,1-15.39-152.5H487.09l-25.67,45.63-1,1.63Z"/><path class="cls-1" d="M515.56,615.2H689.42a165.69,165.69,0,0,1-122.23,89.7Z"/><path class="cls-1" d="M540,707.39a166.55,166.55,0,0,1-129.4-61.28l52.29-90.59,85.84,151.62C545.69,707.31,542.8,707.39,540,707.39Z"/></g></svg>