<?xml version="1.0" encoding="utf-8"?>
<!-- Generator: Adobe Illustrator 25.4.1, SVG Export Plug-In . SVG Version: 6.00 Build 0)  -->
<svg version="1.1" id="Layer_1" xmlns="http://www.w3.org/2000/svg" xmlns:xlink="http://www.w3.org/1999/xlink" x="0px" y="0px"
	 viewBox="0 0 1080 1080" style="enable-background:new 0 0 1080 1080;" xml:space="preserve">
<style type="text/css">
	.st0{fill:#3FBDF1;}
</style>
<g id="Layer_2_00000060022468157269350790000012991708010241866137_">
	<path class="st0" d="M540,746.7c-114,0-206.7-92.7-206.7-206.7S426,333.3,540,333.3S746.7,426,746.7,540S654,746.7,540,746.7z
		 M540,354.3c-102.4,0-185.7,83.3-185.7,185.7S437.6,725.7,540,725.7S725.7,642.4,725.7,540S642.4,354.3,540,354.3z"/>
	<path class="st0" d="M592.9,597.8l87.4-149.1c17.7,27.1,27.1,58.7,27,91c0.1,19.9-3.5,39.6-10.5,58.1L592.9,597.8z"/>
	<path class="st0" d="M392.1,461.2c25-45.7,70.5-78.6,120.7-86.9l50.2,86.9H392.1z"/>
	<path class="st0" d="M531.3,372.7c2.9-0.1,5.7-0.1,8.7-0.1c50.1-0.1,97.7,22.4,129.4,61.2l-51.7,88.6L531.3,372.7z"/>
	<path class="st0" d="M399.6,631.1c-29.4-45.4-35.2-102.2-15.4-152.5h102.9l-25.7,45.6l-1,1.6L399.6,631.1z"/>
	<path class="st0" d="M515.6,615.2h173.9c-23.9,47.9-69.4,81.3-122.2,89.7L515.6,615.2z"/>
	<path class="st0" d="M540,707.4c-50.2,0.1-97.7-22.4-129.4-61.3l52.3-90.6l85.8,151.6C545.7,707.3,542.8,707.4,540,707.4z"/>
</g>
</svg>
