<svg id="Layer_1" data-name="Layer 1" xmlns="http://www.w3.org/2000/svg" viewBox="0 0 1080 1080"><defs><style>.cls-1{font-size:150px;font-family:LeagueSpartan-SemiBold, League Spartan;font-weight:600;}.cls-1,.cls-2{fill:#3fbdf1;}</style></defs><path d="M-.34.39v1080h1080V.39ZM416,601.61c-1,6-6,11-10,12-27,4-53,4-79,5-15.53-40.76-6.57-88.12-13.34-131.1a2.92,2.92,0,0,1-.66,1.1,2.92,2.92,0,0,0,.66-1.1c-.21-1.3-.42-2.6-.66-3.9.24,1.3.45,2.6.66,3.9.84-2.33-.2-6.05,2.34-6.9,31-9,63-13,91,3,23,13,12,43,9,65C413,566.61,418,583.61,416,601.61Z" transform="translate(0.34 -0.39)"/><text class="cls-1" transform="translate(195.23 585.41)">MOMENTS</text><rect x="315.26" y="483" width="104.43" height="104.43"/><path d="M407,483.61c-28-16-60-12-91-3-2.54.85-1.5,4.57-2.34,6.9,6.77,43-2.19,90.34,13.34,131.1,26-1,52-1,79-5,4-1,9-6,10-12,2-18-3-35,0-53C419,526.61,430,496.61,407,483.61Z" transform="translate(0.34 -0.39)"/><path class="cls-2" d="M366.7,587.63a52,52,0,1,1,52-52A52.09,52.09,0,0,1,366.7,587.63Zm0-98.76a46.73,46.73,0,1,0,46.72,46.73A46.78,46.78,0,0,0,366.7,488.87Z" transform="translate(0.34 -0.39)"/><path class="cls-2" d="M380,550.15l22-37.53a41.75,41.75,0,0,1,6.81,22.9,41.18,41.18,0,0,1-2.65,14.63Z" transform="translate(0.34 -0.39)"/><path class="cls-2" d="M329.48,515.78a43.22,43.22,0,0,1,30.37-21.86l12.62,21.86Z" transform="translate(0.34 -0.39)"/><path class="cls-2" d="M364.52,493.5c.72,0,1.44,0,2.18,0a41.93,41.93,0,0,1,32.56,15.4l-13,22.31Z" transform="translate(0.34 -0.39)"/><path class="cls-2" d="M331.37,558.54a42.19,42.19,0,0,1-3.88-38.39h25.89l-6.46,11.49-.26.41Z" transform="translate(0.34 -0.39)"/><path class="cls-2" d="M360.55,554.53H404.3a41.68,41.68,0,0,1-30.76,22.57Z" transform="translate(0.34 -0.39)"/><path class="cls-2" d="M366.7,577.73a41.91,41.91,0,0,1-32.57-15.42l13.16-22.8,21.6,38.16Q367.75,577.73,366.7,577.73Z" transform="translate(0.34 -0.39)"/></svg>