<svg id="Layer_1" data-name="Layer 1" xmlns="http://www.w3.org/2000/svg" viewBox="0 0 1080 1080"><defs><style>.cls-1{fill:#3fbdf1;}.cls-2{fill:#fff;}</style></defs><rect class="cls-1" width="1080" height="1080"/><path class="cls-2" d="M539.66,746.52c-114,0-206.74-92.74-206.74-206.74S425.66,333,539.66,333,746.4,425.78,746.4,539.78,653.65,746.52,539.66,746.52Zm0-392.41C437.28,354.11,354,437.4,354,539.78s83.29,185.67,185.67,185.67,185.66-83.29,185.66-185.67S642,354.11,539.66,354.11Z" transform="translate(0.34 0.22)"/><path class="cls-2" d="M592.59,597.6,680,448.48a166,166,0,0,1,27,91A163.28,163.28,0,0,1,696.5,597.6Z" transform="translate(0.34 0.22)"/><path class="cls-2" d="M391.79,461c25-45.73,70.53-78.61,120.68-86.87L562.62,461Z" transform="translate(0.34 0.22)"/><path class="cls-2" d="M531,372.5c2.86-.1,5.74-.11,8.66-.11A166.53,166.53,0,0,1,669,433.58l-51.71,88.64Z" transform="translate(0.34 0.22)"/><path class="cls-2" d="M399.29,630.91a167.65,167.65,0,0,1-15.39-152.5H486.74L461.08,524l-1,1.63Z" transform="translate(0.34 0.22)"/><path class="cls-2" d="M515.22,615H689.08a165.76,165.76,0,0,1-122.23,89.71Z" transform="translate(0.34 0.22)"/><path class="cls-2" d="M539.66,707.17a166.58,166.58,0,0,1-129.41-61.28l52.3-90.59,85.83,151.62C545.35,707.09,542.46,707.17,539.66,707.17Z" transform="translate(0.34 0.22)"/></svg>